<svg width="54" height="54" viewBox="0 0 54 54" fill="none" xmlns="http://www.w3.org/2000/svg">
<path d="M1.16388 52.8361H52.8364" stroke="#0047F5" stroke-width="2" stroke-linecap="round" stroke-linejoin="round"/>
<path d="M5.56512 52.8364V1.16388H37.0803V52.8364" stroke="#0047F5" stroke-width="2" stroke-linecap="round" stroke-linejoin="round"/>
<path d="M37.7806 9.78539H48.4365V51.3451" stroke="#0047F5" stroke-width="2" stroke-linecap="round" stroke-linejoin="round"/>
<path d="M18.4173 52.1891V47.4941H24.2267V52.1891" stroke="#0047F5" stroke-width="2" stroke-linecap="round" stroke-linejoin="round"/>
<path d="M10.2794 6.70313H32.3644" stroke="#0047F5" stroke-width="2" stroke-linecap="round" stroke-linejoin="round"/>
<path d="M42.563 18.9423V16.2713" stroke="#0047F5" stroke-width="2" stroke-linecap="round" stroke-linejoin="round"/>
<path d="M42.563 27.951V25.28" stroke="#0047F5" stroke-width="2" stroke-linecap="round" stroke-linejoin="round"/>
<path d="M42.563 36.9601V34.2876" stroke="#0047F5" stroke-width="2" stroke-linecap="round" stroke-linejoin="round"/>
<path d="M42.563 45.9689V43.2964" stroke="#0047F5" stroke-width="2" stroke-linecap="round" stroke-linejoin="round"/>
<path d="M10.2794 11.931H32.3644" stroke="#0047F5" stroke-width="2" stroke-linecap="round" stroke-linejoin="round"/>
<path d="M10.2794 17.1571H32.3644" stroke="#0047F5" stroke-width="2" stroke-linecap="round" stroke-linejoin="round"/>
<path d="M10.2794 22.3851H32.3644" stroke="#0047F5" stroke-width="2" stroke-linecap="round" stroke-linejoin="round"/>
<path d="M10.2794 27.6113H32.3644" stroke="#0047F5" stroke-width="2" stroke-linecap="round" stroke-linejoin="round"/>
<path d="M10.2794 32.8392H32.3644" stroke="#0047F5" stroke-width="2" stroke-linecap="round" stroke-linejoin="round"/>
<path d="M10.2794 38.0669H32.3644" stroke="#0047F5" stroke-width="2" stroke-linecap="round" stroke-linejoin="round"/>
<path d="M10.2794 43.2934H32.3644" stroke="#0047F5" stroke-width="2" stroke-linecap="round" stroke-linejoin="round"/>
<path d="M10.1428 48.5966H14.2235" stroke="#0047F5" stroke-width="2" stroke-linecap="round" stroke-linejoin="round"/>
<path d="M28.2836 48.5966H32.3643" stroke="#0047F5" stroke-width="2" stroke-linecap="round" stroke-linejoin="round"/>
</svg>
