<svg width="92" height="92" viewBox="0 0 92 92" fill="none" xmlns="http://www.w3.org/2000/svg">
<path d="M37.9986 55.2938C38.5329 55.9276 39.438 57.0621 42.1033 58.5336C35.574 58.1677 28.735 54.6503 22.2682 52.6846C21.0503 52.314 20.1244 50.642 20.1309 49.2667L20.1004 46.2018C20.0907 45.239 20.8882 44.018 21.7772 43.9521L36.5769 43.9137C51.1472 43.8751 32.1401 48.3424 37.997 55.2922L37.9986 55.2938Z" stroke="#0047F5" stroke-width="2" stroke-linecap="round" stroke-linejoin="round"/>
<path d="M42.1033 58.5351L51.696 58.6459" stroke="#0047F5" stroke-width="2" stroke-linecap="round" stroke-linejoin="round"/>
<path d="M51.6958 58.6459C52.9362 58.6555 54.4205 58.2062 55.1491 57.0605" stroke="#0047F5" stroke-width="2" stroke-linecap="round" stroke-linejoin="round"/>
<path d="M55.1489 57.0621C56.4101 55.082 57.681 53.4645 59.3242 52.3797C62.535 50.2585 68.5253 50.3402 71.8998 53.9924" stroke="#0047F5" stroke-width="2" stroke-linecap="round" stroke-linejoin="round"/>
<path d="M61.5229 50.7638C62.3027 43.7836 60.7399 37.9025 59.5717 35.2196C58.0216 31.6588 56.4988 28.1655 54.9647 24.6369C54.2988 23.106 46.8596 25.5114 46.9238 27.3455" stroke="#0047F5" stroke-width="2" stroke-linecap="round" stroke-linejoin="round"/>
<path d="M63.0426 27.827C63.439 27.827 63.8224 27.8704 64.1835 27.9521L63.5127 33.5107C63.3587 33.5235 63.2014 33.5315 63.0426 33.5315C60.9036 33.5315 59.1705 32.2543 59.1705 30.6784C59.1705 29.1027 60.9052 27.827 63.0426 27.827Z" stroke="#0047F5" stroke-width="2" stroke-linecap="round" stroke-linejoin="round"/>
<path d="M64.7274 59.0373C66.0497 59.0373 67.1216 60.1092 67.1216 61.4314C67.1216 62.7537 66.0497 63.8256 64.7274 63.8256C63.4052 63.8256 62.3333 62.7537 62.3333 61.4314C62.3333 60.1092 63.4052 59.0373 64.7274 59.0373Z" stroke="#0047F5" stroke-width="2" stroke-linecap="round" stroke-linejoin="round"/>
<path d="M64.7275 55.0129C68.2722 55.0129 71.146 57.8868 71.146 61.4315C71.146 64.9762 68.2722 67.8501 64.7275 67.8501C61.1828 67.8501 58.3089 64.9762 58.3089 61.4315C58.3089 57.8868 61.1828 55.0129 64.7275 55.0129Z" stroke="#0047F5" stroke-width="2" stroke-linecap="round" stroke-linejoin="round"/>
<path d="M27.4676 55.0129C31.0123 55.0129 33.8861 57.8868 33.8861 61.4315C33.8861 64.9762 31.0123 67.8501 27.4676 67.8501C23.9229 67.8501 21.049 64.9762 21.049 61.4315C21.049 57.8868 23.9229 55.0129 27.4676 55.0129Z" stroke="#0047F5" stroke-width="2" stroke-linecap="round" stroke-linejoin="round"/>
</svg>
