<svg width="58" height="58" viewBox="0 0 58 58" fill="none" xmlns="http://www.w3.org/2000/svg">
<path d="M52.3699 15.0045H48.2779C48.0964 15.0045 47.948 15.2558 47.948 15.5611V22.4818C47.948 22.7889 48.0964 23.0384 48.2779 23.0384H52.3699C52.5514 23.0384 52.6996 22.7889 52.6996 22.4818V15.5611C52.6996 15.2558 52.5514 15.0045 52.3699 15.0045Z" stroke="#0047F5" stroke-width="2" stroke-linecap="round" stroke-linejoin="round"/>
<path d="M52.3699 34.9619H48.2779C48.0964 34.9619 47.948 35.2133 47.948 35.5186V42.4391C47.948 42.7445 48.0964 42.9958 48.2779 42.9958H52.3699C52.5514 42.9958 52.6996 42.7463 52.6996 42.4391V35.5186C52.6996 35.2133 52.5514 34.9619 52.3699 34.9619Z" stroke="#0047F5" stroke-width="2" stroke-linecap="round" stroke-linejoin="round"/>
<path d="M50.4206 14.193V10.546C50.4206 8.91438 49.0858 7.57775 47.4524 7.57775H10.5461C8.91276 7.57775 7.57788 8.91438 7.57788 10.546V47.4523C7.57788 49.0855 8.91276 50.4205 10.5461 50.4205H47.4524C49.084 50.4205 50.4206 49.0855 50.4206 47.4523V43.3219" stroke="#0047F5" stroke-width="2" stroke-linecap="round" stroke-linejoin="round"/>
<path d="M50.4206 34.5761V28.9991V23.902" stroke="#0047F5" stroke-width="2" stroke-linecap="round" stroke-linejoin="round"/>
<path d="M28.999 16.7179C22.2164 16.7179 16.7179 22.2164 16.7179 28.9974C16.7179 35.7782 22.2164 41.2785 28.999 41.2785C35.7817 41.2785 41.2802 35.78 41.2802 28.9974C41.2802 22.2146 35.7817 16.7179 28.999 16.7179Z" stroke="#0047F5" stroke-width="2" stroke-linecap="round" stroke-linejoin="round"/>
<path d="M28.999 22.4956C25.4061 22.4956 22.4955 25.408 22.4955 28.9991C22.4955 32.5904 25.4079 35.5028 28.999 35.5028C32.5903 35.5028 35.5025 32.5904 35.5025 28.9991C35.5025 25.408 32.5903 22.4956 28.999 22.4956Z" stroke="#0047F5" stroke-width="2" stroke-linecap="round" stroke-linejoin="round"/>
<path d="M49.4031 1.5H8.59687C4.69325 1.5 1.5 4.69325 1.5 8.59687V49.4031C1.5 53.3066 4.69325 56.5 8.59687 56.5H49.4031C53.3066 56.5 56.5 53.3066 56.5 49.4031V8.59687C56.5 4.69325 53.3066 1.5 49.4031 1.5Z" stroke="#0047F5" stroke-width="2" stroke-linecap="round" stroke-linejoin="round"/>
<path d="M28.9991 16.7179V19.6599" stroke="#0047F5" stroke-width="2" stroke-linecap="round" stroke-linejoin="round"/>
<path d="M20.3163 20.3161L22.3963 22.3961" stroke="#0047F5" stroke-width="2" stroke-linecap="round" stroke-linejoin="round"/>
<path d="M16.7198 28.9993H19.66" stroke="#0047F5" stroke-width="2" stroke-linecap="round" stroke-linejoin="round"/>
<path d="M20.3163 37.6823L22.3963 35.6021" stroke="#0047F5" stroke-width="2" stroke-linecap="round" stroke-linejoin="round"/>
<path d="M28.9991 41.2786V38.3384" stroke="#0047F5" stroke-width="2" stroke-linecap="round" stroke-linejoin="round"/>
<path d="M37.6822 37.6823L35.6021 35.6021" stroke="#0047F5" stroke-width="2" stroke-linecap="round" stroke-linejoin="round"/>
<path d="M41.2801 28.9993H38.3381" stroke="#0047F5" stroke-width="2" stroke-linecap="round" stroke-linejoin="round"/>
<path d="M37.6822 20.3161L35.6021 22.3961" stroke="#0047F5" stroke-width="2" stroke-linecap="round" stroke-linejoin="round"/>
</svg>
