<svg width="62" height="62" viewBox="0 0 62 62" fill="none" xmlns="http://www.w3.org/2000/svg">
<path d="M22.6394 23.6243C24.7112 19.8548 30.5296 19.613 30.5296 24.8084C30.5296 28.352 26.0577 28.1368 26.0577 32.4356" stroke="#0047F5" stroke-width="2" stroke-linecap="round" stroke-linejoin="round"/>
<path d="M26.0528 37.5464C26.0326 37.7369 26.0226 37.9399 26.0226 38.1534" stroke="#0047F5" stroke-width="2" stroke-linecap="round" stroke-linejoin="round"/>
<path d="M20.5508 37.55C20.5194 37.7406 20.495 37.94 20.4828 38.1535" stroke="#0047F5" stroke-width="2" stroke-linecap="round" stroke-linejoin="round"/>
<path d="M15.3979 37.55C15.3665 37.7406 15.342 37.94 15.3299 38.1535" stroke="#0047F5" stroke-width="2" stroke-linecap="round" stroke-linejoin="round"/>
<path d="M8.629 10.4961H36.8016C40.9983 10.4961 44.4306 13.9304 44.4306 18.1252V41.4906C44.4306 45.6871 40.9965 49.1196 36.8016 49.1196H25.3571L13.9128 60.5641V49.1196H8.629C4.4325 49.1196 1 45.6871 1 41.4906V18.1252C1 13.9286 4.43425 10.4961 8.629 10.4961Z" stroke="#0047F5" stroke-width="2" stroke-linecap="round" stroke-linejoin="round"/>
<path d="M44.7271 41.4341L52.4144 49.1214" stroke="#0047F5" stroke-width="2" stroke-linecap="round" stroke-linejoin="round"/>
<path d="M52.4145 49.1214V38.2223" stroke="#0047F5" stroke-width="2" stroke-linecap="round" stroke-linejoin="round"/>
<path d="M52.4144 38.2224H53.7345C57.7299 38.2224 61 34.9522 61 30.9567V8.70149C61 4.70425 57.7299 1.436 53.7345 1.436H22.9676C18.9705 1.436 15.7021 4.706 15.7021 8.70149" stroke="#0047F5" stroke-width="2" stroke-linecap="round" stroke-linejoin="round"/>
</svg>
