<svg width="56" height="62" viewBox="0 0 56 62" fill="none" xmlns="http://www.w3.org/2000/svg">
<path d="M20.7625 46.0561C20.1144 36.0887 12.3956 41.135 11.5076 27.5966C10.9464 19.049 18.8928 12.0861 28.0018 12.0861C37.1106 12.0861 45.1023 19.0525 44.4959 27.5966C43.6756 39.147 37.943 36.8151 35.8421 42.8552" stroke="#0047F5" stroke-width="2" stroke-linecap="round" stroke-linejoin="round"/>
<path d="M21.0143 57.9384L35.8784 54.0407" stroke="#0047F5" stroke-width="2" stroke-linecap="round" stroke-linejoin="round"/>
<path d="M21.0143 52.3362L35.8784 48.4369" stroke="#0047F5" stroke-width="2" stroke-linecap="round" stroke-linejoin="round"/>
<path d="M21.0143 46.7335L35.8784 42.8341" stroke="#0047F5" stroke-width="2" stroke-linecap="round" stroke-linejoin="round"/>
<path d="M33.3123 56.1291C33.3123 58.6782 30.9369 60.7444 28.0054 60.7444C26.1582 60.7444 24.53 59.9225 23.5795 58.6765" stroke="#0047F5" stroke-width="2" stroke-linecap="round" stroke-linejoin="round"/>
<path d="M28.5109 1.25513V6.24925" stroke="#0047F5" stroke-width="2" stroke-linecap="round" stroke-linejoin="round"/>
<path d="M46.6381 8.16062L43.1071 11.6916" stroke="#0047F5" stroke-width="2" stroke-linecap="round" stroke-linejoin="round"/>
<path d="M54.8749 27.6144H49.8808" stroke="#0047F5" stroke-width="2" stroke-linecap="round" stroke-linejoin="round"/>
<path d="M45.9187 46.2559L42.386 42.7249" stroke="#0047F5" stroke-width="2" stroke-linecap="round" stroke-linejoin="round"/>
<path d="M10.0829 8.16062L13.6137 11.6916" stroke="#0047F5" stroke-width="2" stroke-linecap="round" stroke-linejoin="round"/>
<path d="M1.125 26.5939H6.11912" stroke="#0047F5" stroke-width="2" stroke-linecap="round" stroke-linejoin="round"/>
<path d="M9.36175 46.2576L12.8926 42.7249" stroke="#0047F5" stroke-width="2" stroke-linecap="round" stroke-linejoin="round"/>
<path d="M22.0415 30.2135L27.4648 37.682L35.6319 23.2663" stroke="#0047F5" stroke-width="2" stroke-linecap="round" stroke-linejoin="round"/>
</svg>
