<svg width="60" height="54" viewBox="0 0 60 54" fill="none" xmlns="http://www.w3.org/2000/svg">
<path d="M55.8542 28.8316V50.4724C55.8542 51.521 54.9816 52.3937 53.9329 52.3937H6.06749C5.01712 52.3937 4.14612 51.5296 4.14612 50.4724V29.151" stroke="#0047F5" stroke-width="2" stroke-linecap="round" stroke-linejoin="round"/>
<path d="M21.3171 10.2601V4.75213C21.3171 3.022 22.733 1.60612 24.4631 1.60612H35.5354C37.2655 1.60612 38.6813 3.051 38.6813 4.75213V10.2601" stroke="#0047F5" stroke-width="2" stroke-linecap="round" stroke-linejoin="round"/>
<path d="M24.7005 33.1236C16.6392 32.7222 8.554 31.0776 1.32962 27.573L1.36212 12.2874C1.36212 11.2301 2.22625 10.3659 3.2835 10.3659H56.7166C57.7739 10.3659 58.638 11.2335 58.638 12.2874L58.6705 27.1734C51.4 31.0075 43.132 32.7035 34.9735 33.1185" stroke="#0047F5" stroke-width="2" stroke-linecap="round" stroke-linejoin="round"/>
<path d="M26.5466 30.3705H33.4517C34.0375 30.3705 34.5174 30.8504 34.5174 31.4362V36.1739C34.5174 36.7597 34.0375 37.2396 33.4517 37.2396H26.5466C25.9609 37.2396 25.481 36.7597 25.481 36.1739V31.4362C25.481 30.8504 25.9609 30.3705 26.5466 30.3705Z" stroke="#0047F5" stroke-width="2" stroke-linecap="round" stroke-linejoin="round"/>
</svg>
