<svg width="100" height="100" viewBox="0 0 100 100" fill="none" xmlns="http://www.w3.org/2000/svg">
<g clip-path="url(#clip0_10_2227)">
<path d="M85 0H15C6.71573 0 0 6.71573 0 15V85C0 93.2843 6.71573 100 15 100H85C93.2843 100 100 93.2843 100 85V15C100 6.71573 93.2843 0 85 0Z" fill="url(#paint0_linear_10_2227)"/>
<path d="M67.4821 47.8062C69.7134 50.5774 70.8504 53.6953 70.8504 57.2673C70.8504 62.661 67.888 67.4845 63.2273 70.7044L64.7236 78.197C64.8576 78.8674 64.3428 79.4162 63.5973 79.4127L57.0308 79.377C56.2853 79.3734 55.5898 78.8174 55.4485 78.1469L54.6333 74.2996C52.9885 74.6339 50.7376 74.8128 48.966 74.8128C47.1943 74.8128 44.9453 74.6339 43.2986 74.2996L42.4834 78.1469C42.3421 78.8156 41.645 79.3734 40.9013 79.377L34.3346 79.4127C33.5909 79.4162 33.0653 78.8674 33.2101 78.197L34.7065 71.2335C31.7405 70.3146 29.4629 68.0763 28.1989 64.9959H24.9916C24.0762 64.9959 23 64.9941 23 63.664V56.2214C23 54.902 23.7474 54.094 24.938 54.094H27.4284C28.0076 51.4927 29.2841 49.0916 31.0951 47.0267C30.8199 43.5102 29.1572 41.8726 27.5929 38.8995C33.1225 38.2522 36.9055 39.4555 39.2618 41.4202C40.7118 40.8517 42.3959 40.4155 44.1425 40.1259" stroke="#0047F5" stroke-width="2" stroke-linecap="round" stroke-linejoin="round"/>
<path d="M77.9499 53.3019C77.3474 54.371 74.9445 57.4746 70.9059 54.5105" stroke="#0047F5" stroke-width="2" stroke-linecap="round" stroke-linejoin="round"/>
<path d="M34.7171 52.4473C34.1523 53.014 33.7268 53.5771 33.3763 54.1994" stroke="#0047F5" stroke-width="2" stroke-linecap="round" stroke-linejoin="round"/>
<path d="M58.838 25.2744V28.4585" stroke="#0047F5" stroke-width="2" stroke-linecap="round" stroke-linejoin="round"/>
<path d="M58.838 42.3535V45.5392" stroke="#0047F5" stroke-width="2" stroke-linecap="round" stroke-linejoin="round"/>
<path d="M58.706 21C66.9013 21 73.5465 27.6434 73.5465 35.8405C73.5465 44.0375 66.903 50.681 58.706 50.681C50.509 50.681 43.8655 44.0375 43.8655 35.8405C43.8655 27.6434 50.5108 21 58.706 21Z" stroke="#0047F5" stroke-width="2" stroke-linecap="round" stroke-linejoin="round"/>
<path d="M63.456 30.1214C61.9883 29.6332 60.6653 29.1756 59.3369 29.0254C52.1804 28.2209 51.2633 35.4311 58.881 35.4079C66.2843 35.3846 65.587 42.602 58.4126 41.7885C57.0843 41.6384 55.7614 41.1771 54.3025 40.6926" stroke="#0047F5" stroke-width="2" stroke-linecap="round" stroke-linejoin="round"/>
</g>
<defs>
<linearGradient id="paint0_linear_10_2227" x1="57.8947" y1="128.571" x2="-12.3209" y2="82.4113" gradientUnits="userSpaceOnUse">
<stop stop-color="#5FEE99"/>
<stop offset="1" stop-color="#EBFFF7"/>
</linearGradient>
<clipPath id="clip0_10_2227">
<rect width="100" height="100" fill="white"/>
</clipPath>
</defs>
</svg>
