<svg width="56" height="56" viewBox="0 0 56 56" fill="none" xmlns="http://www.w3.org/2000/svg">
<path d="M27.9992 13.0547C24.1756 13.0547 20.3504 14.5142 17.4315 17.4314C14.5126 20.3502 13.0532 24.1755 13.0549 27.9991C13.0549 31.8226 14.5144 35.6479 17.4315 38.5667C20.3504 41.4856 24.1756 42.9451 27.9992 42.9434C31.8245 42.9434 35.648 41.484 38.567 38.5667C41.4859 35.6479 42.9452 31.8244 42.9435 27.9991C42.9435 24.1755 41.4841 20.3502 38.567 17.4314C35.648 14.5125 31.8245 13.0531 27.9992 13.0547Z" stroke="#0047F5" stroke-width="2" stroke-linecap="round" stroke-linejoin="round"/>
<path d="M13.9647 21.0126L6.72562 13.7751" stroke="#0047F5" stroke-width="2" stroke-linecap="round" stroke-linejoin="round"/>
<path d="M6.22725 41.4311L13.5687 34.0913" stroke="#0047F5" stroke-width="2" stroke-linecap="round" stroke-linejoin="round"/>
<path d="M20.4886 42.5595L13.2511 49.7969" stroke="#0047F5" stroke-width="2" stroke-linecap="round" stroke-linejoin="round"/>
<path d="M41.9551 50.2952L34.6152 42.9555" stroke="#0047F5" stroke-width="2" stroke-linecap="round" stroke-linejoin="round"/>
<path d="M42.5594 35.5098L49.7968 42.7472" stroke="#0047F5" stroke-width="2" stroke-linecap="round" stroke-linejoin="round"/>
<path d="M49.7714 14.5673L42.4315 21.9071" stroke="#0047F5" stroke-width="2" stroke-linecap="round" stroke-linejoin="round"/>
<path d="M35.5098 13.4406L42.7472 6.2015" stroke="#0047F5" stroke-width="2" stroke-linecap="round" stroke-linejoin="round"/>
<path d="M14.5671 6.22713L21.907 13.5686" stroke="#0047F5" stroke-width="2" stroke-linecap="round" stroke-linejoin="round"/>
<path d="M13.456 5.39063C17.8701 2.54525 22.9346 1.12337 27.9991 1.12337C33.3675 1.12337 38.7341 2.721 43.3275 5.91638C44.4268 5.49988 46.1269 5.68775 46.8404 6.40125L50.2696 9.8305C51.0224 10.5849 51.13 12.3891 50.6076 13.4543C53.4531 17.8685 54.875 22.933 54.875 27.9991C54.875 33.3675 53.2773 38.7341 50.0819 43.3275C50.4984 44.4269 50.3106 46.1269 49.5971 46.8404L46.1679 50.2714C45.4151 51.0241 43.6091 51.1318 42.544 50.6094C38.1299 53.4549 33.0654 54.8768 27.9991 54.8768C22.6325 54.8768 17.2641 53.279 12.6725 50.0836C11.5733 50.4984 9.87475 50.3124 9.15963 49.5989L5.73037 46.1679C4.97587 45.4151 4.87 43.6093 5.39238 42.544C2.54688 38.1299 1.125 33.0654 1.125 27.9991C1.125 22.6325 2.72275 17.2643 5.91812 12.6708C5.50162 11.5715 5.68937 9.87138 6.40287 9.15788L9.83388 5.727C10.5866 4.97425 12.3925 4.86663 13.4576 5.389L13.456 5.39063Z" stroke="#0047F5" stroke-width="2" stroke-linecap="round" stroke-linejoin="round"/>
</svg>
