<svg width="65" height="25" viewBox="0 0 65 25" fill="none" xmlns="http://www.w3.org/2000/svg">
<g clip-path="url(#clip0_9_3)">
<path fill-rule="evenodd" clip-rule="evenodd" d="M6.5139 12.4648C6.5139 10.7643 5.08752 9.3858 3.32799 9.3858C1.56847 9.3858 0.14209 10.7643 0.14209 12.4648C0.14209 14.1654 1.56847 15.5438 3.32799 15.5438C5.08752 15.5438 6.5139 14.1654 6.5139 12.4648Z" fill="#0047F5"/>
<path fill-rule="evenodd" clip-rule="evenodd" d="M15.9078 3.38567C15.9078 1.68517 14.4815 0.306641 12.722 0.306641C10.9625 0.306641 9.53607 1.68517 9.53607 3.38567C9.53607 5.08617 10.9625 6.46469 12.722 6.46469C14.4815 6.46469 15.9078 5.08617 15.9078 3.38567Z" fill="#0047F5"/>
<path fill-rule="evenodd" clip-rule="evenodd" d="M25.3026 12.4648C25.3026 10.7643 23.8762 9.3858 22.1167 9.3858C20.3572 9.3858 18.9308 10.7643 18.9308 12.4648C18.9308 14.1654 20.3572 15.5438 22.1167 15.5438C23.8762 15.5438 25.3026 14.1654 25.3026 12.4648Z" fill="#0047F5"/>
<path fill-rule="evenodd" clip-rule="evenodd" d="M15.9078 21.544C15.9078 19.8436 14.4815 18.465 12.722 18.465C10.9625 18.465 9.53607 19.8436 9.53607 21.544C9.53607 23.2445 10.9625 24.623 12.722 24.623C14.4815 24.623 15.9078 23.2445 15.9078 21.544Z" fill="#0047F5"/>
<path fill-rule="evenodd" clip-rule="evenodd" d="M49.8 15.804C48.7113 17.4576 46.6353 18.3329 44.4833 18.3329C40.939 18.3329 38.2554 15.9498 38.2554 12.3995C38.2554 8.77631 41.0908 6.49054 44.4581 6.49054C47.8506 6.49054 50.5088 8.75205 50.5088 12.3023C50.5088 12.6184 50.4835 12.9832 50.4329 13.3966H41.2934C41.6225 14.9772 42.8884 15.7796 44.6353 15.7796C45.9264 15.7796 47.1416 15.2933 47.8506 14.3693L49.8 15.804ZM41.2505 11.4362H47.6495C47.4689 9.86933 46.2046 8.96352 44.5274 8.96352C42.9018 8.96352 41.6117 9.698 41.2505 11.4362Z" fill="#0047F5"/>
<path d="M33.0877 23.9912C36.2982 23.9912 37.7196 22.0128 37.7196 18.8378V6.35913H34.8768V18.8378C34.9013 20.1323 34.4847 21.3534 32.9897 21.3534H31.5929V23.9912H33.0877Z" fill="#0047F5"/>
<path d="M36.2115 3.3328C37.0446 3.3328 37.719 2.70083 37.719 1.88539C37.719 1.04957 37.0446 0.437988 36.2115 0.437988C35.3981 0.437988 34.7237 1.04957 34.7237 1.88539C34.7237 2.70083 35.3981 3.3328 36.2115 3.3328Z" fill="#0047F5"/>
<path d="M54.7666 18.3334V8.6804L56.508 8.66687V6.4462L54.7666 6.40994V5.409C54.7413 4.01745 55.325 2.94326 57.3298 2.94326H58.1418V0.306641H56.746C53.447 0.306641 51.8229 2.28411 51.8229 5.55548V6.40994H50.354V8.66687L51.8229 8.6804V18.3334H54.7666Z" fill="#0047F5"/>
<path d="M61.3504 18.3334V8.6804L63.0918 8.66687V6.4462L61.3504 6.40994V5.409C61.325 4.01745 61.9087 2.94326 63.9135 2.94326H64.7255V0.306641H63.3298C60.0308 0.306641 58.4067 2.28411 58.4067 5.55548V6.40994H56.9378V8.66687L58.4067 8.6804V18.3334H61.3504Z" fill="#0047F5"/>
</g>
<defs>
<clipPath id="clip0_9_3">
<rect width="65" height="25" fill="white"/>
</clipPath>
</defs>
</svg>
