<svg width="78" height="30" viewBox="0 0 78 30" fill="none" xmlns="http://www.w3.org/2000/svg">
<g clip-path="url(#clip0_58_381)">
<path fill-rule="evenodd" clip-rule="evenodd" d="M7.69553 14.8342C7.69553 12.7594 5.97282 11.0775 3.84776 11.0775C1.7227 11.0775 0 12.7594 0 14.8342C0 16.909 1.7227 18.5909 3.84776 18.5909C5.97282 18.5909 7.69553 16.909 7.69553 14.8342Z" fill="white"/>
<path fill-rule="evenodd" clip-rule="evenodd" d="M19.0417 3.75663C19.0417 1.68187 17.319 -6.10352e-05 15.194 -6.10352e-05C13.0689 -6.10352e-05 11.3462 1.68187 11.3462 3.75663C11.3462 5.8314 13.0689 7.51332 15.194 7.51332C17.319 7.51332 19.0417 5.8314 19.0417 3.75663Z" fill="white"/>
<path fill-rule="evenodd" clip-rule="evenodd" d="M30.3874 14.8342C30.3874 12.7594 28.6647 11.0775 26.5397 11.0775C24.4146 11.0775 22.6919 12.7594 22.6919 14.8342C22.6919 16.909 24.4146 18.5909 26.5397 18.5909C28.6647 18.5909 30.3874 16.909 30.3874 14.8342Z" fill="white"/>
<path fill-rule="evenodd" clip-rule="evenodd" d="M19.0417 25.9115C19.0417 23.8367 17.319 22.1548 15.194 22.1548C13.0689 22.1548 11.3462 23.8367 11.3462 25.9115C11.3462 27.9862 13.0689 29.6682 15.194 29.6682C17.319 29.6682 19.0417 27.9862 19.0417 25.9115Z" fill="white"/>
<path fill-rule="evenodd" clip-rule="evenodd" d="M59.9747 18.9087C58.6599 20.9262 56.1526 21.9943 53.5536 21.9943C49.2728 21.9943 46.0317 19.0867 46.0317 14.755C46.0317 10.3343 49.4563 7.54547 53.523 7.54547C57.6203 7.54547 60.8309 10.3047 60.8309 14.6364C60.8309 15.0221 60.8003 15.4671 60.7391 15.9715H49.701C50.0985 17.8999 51.6273 18.879 53.737 18.879C55.2965 18.879 56.7641 18.2856 57.6203 17.1583L59.9747 18.9087ZM49.6493 13.5789H57.3777C57.1596 11.6673 55.6326 10.5621 53.607 10.5621C51.6437 10.5621 50.0855 11.4582 49.6493 13.5789Z" fill="white"/>
<path d="M39.7899 28.8975C43.6673 28.8975 45.384 26.4839 45.384 22.6101V7.38489H41.9506V22.6101C41.9802 24.1894 41.477 25.6793 39.6715 25.6793H37.9844V28.8975H39.7899Z" fill="white"/>
<path d="M43.5632 3.69251C44.5694 3.69251 45.3839 2.92146 45.3839 1.92655C45.3839 0.906768 44.5694 0.160583 43.5632 0.160583C42.5809 0.160583 41.7664 0.906768 41.7664 1.92655C41.7664 2.92146 42.5809 3.69251 43.5632 3.69251Z" fill="white"/>
<path d="M65.9729 21.9943V10.2167L68.076 10.2002V7.49082L65.9729 7.44658V6.22535C65.9422 4.52752 66.6472 3.21692 69.0684 3.21692H70.0492V0H68.3635C64.3791 0 62.4176 2.41269 62.4176 6.40406V7.44658H60.6436V10.2002L62.4176 10.2167V21.9943H65.9729Z" fill="white"/>
<path d="M73.9236 21.9943V10.2167L76.0267 10.2002V7.49082L73.9236 7.44658V6.22535C73.893 4.52752 74.5979 3.21692 77.0191 3.21692H77.9999V0H76.3142C72.3298 0 70.3683 2.41269 70.3683 6.40406V7.44658H68.5942V10.2002L70.3683 10.2167V21.9943H73.9236Z" fill="white"/>
</g>
<defs>
<clipPath id="clip0_58_381">
<rect width="78" height="30" fill="white"/>
</clipPath>
</defs>
</svg>
