<svg width="122" height="45" viewBox="0 0 122 45" fill="none" xmlns="http://www.w3.org/2000/svg">
<path d="M35.7775 45L0 28.5949L71.5513 7.49939L35.7775 45Z" fill="#0E3F7C"/>
<path d="M35.7775 45L66.4424 27.5014L0 6.25134L35.7775 45Z" fill="#1F91CA"/>
<path d="M75.386 22.5019L35.7777 45V0L75.386 22.5019Z" fill="#01CF8F"/>
<path d="M44.6041 28.9644C43.3033 28.9644 42.1307 28.6891 41.0788 28.1424C40.0419 27.5957 39.2237 26.8416 38.628 25.884C38.0436 24.915 37.7495 23.8291 37.7495 22.6301C37.7495 21.4273 38.0436 20.349 38.628 19.3913C39.2237 18.4223 40.0419 17.6644 41.0788 17.1139C42.127 16.5672 43.3033 16.292 44.6041 16.292C45.9049 16.292 47.0738 16.5672 48.1106 17.1139C49.1475 17.6607 49.9657 18.4223 50.5614 19.3913C51.1571 20.349 51.455 21.4273 51.455 22.6301C51.455 23.8328 51.1571 24.9187 50.5614 25.884C49.9657 26.8416 49.1475 27.592 48.1106 28.1424C47.0738 28.6891 45.9049 28.9644 44.6041 28.9644ZM44.6041 26.5475C45.3431 26.5475 46.0105 26.3854 46.6062 26.0574C47.202 25.7181 47.6695 25.2505 48.0013 24.6586C48.3482 24.0628 48.5216 23.3879 48.5216 22.6263C48.5216 21.8684 48.3482 21.1898 48.0013 20.5978C47.6657 20.0021 47.202 19.5421 46.6062 19.2141C46.0105 18.8747 45.3431 18.7051 44.6041 18.7051C43.8651 18.7051 43.1978 18.8747 42.602 19.2141C42.0063 19.5421 41.535 20.0021 41.1881 20.5978C40.8526 21.1935 40.6867 21.8684 40.6867 22.6263C40.6867 23.3842 40.8526 24.0628 41.1881 24.6586C41.535 25.2543 42.0063 25.7218 42.602 26.0574C43.1978 26.3854 43.8651 26.5475 44.6041 26.5475Z" fill="black"/>
<path d="M59.29 19.1952C60.4814 19.1952 61.4429 19.5458 62.1706 20.2471C62.9096 20.9484 63.2791 21.9853 63.2791 23.3615V28.7532H60.489V23.7838C60.489 23.0373 60.3231 22.483 59.9875 22.121C59.6519 21.7478 59.1693 21.5592 58.5396 21.5592C57.8346 21.5592 57.2766 21.7742 56.858 22.2078C56.4395 22.6263 56.2321 23.2597 56.2321 24.0967V28.7532H53.4383V19.3385H56.104V20.4394C56.4735 20.0435 56.9334 19.7381 57.4802 19.5308C58.0306 19.3083 58.6339 19.1952 59.29 19.1952Z" fill="black"/>
<path d="M71.9999 28.9644C70.7255 28.9644 69.568 28.6967 68.5273 28.1575C67.5018 27.6108 66.6911 26.8567 66.0954 25.899C65.511 24.93 65.2169 23.8404 65.2169 22.6263C65.2169 21.4122 65.511 20.3263 66.0954 19.3724C66.6911 18.4034 67.5018 17.6493 68.5273 17.1139C69.5642 16.5672 70.7292 16.292 72.015 16.292C73.1008 16.292 74.0774 16.4805 74.9483 16.8538C75.8306 17.2271 76.5696 17.7625 77.1654 18.4638L75.3065 20.1454C74.4582 19.1877 73.41 18.7088 72.1582 18.7088C71.3853 18.7088 70.6915 18.8785 70.0845 19.2178C69.4775 19.5459 68.9986 20.0059 68.6517 20.6016C68.3199 21.1973 68.1503 21.8722 68.1503 22.6301C68.1503 23.3879 68.3162 24.0666 68.6517 24.6623C68.9986 25.2581 69.4737 25.7256 70.0845 26.0612C70.6915 26.3892 71.3853 26.5513 72.1582 26.5513C73.41 26.5513 74.462 26.0687 75.3065 25.0997L77.1654 26.7813C76.5696 27.4939 75.8306 28.0369 74.9483 28.4101C74.0661 28.7759 73.0858 28.9644 71.9999 28.9644Z" fill="black"/>
<path d="M81.5958 20.5789C81.9313 20.1227 82.3762 19.7796 82.938 19.5458C83.5111 19.3121 84.1672 19.1952 84.9062 19.1952V21.7176C84.597 21.695 84.3896 21.6837 84.2803 21.6837C83.481 21.6837 82.8551 21.9061 82.4026 22.3473C81.9502 22.7809 81.724 23.4331 81.724 24.3079V28.7532H78.9338V19.3385H81.5995V20.5789H81.5958Z" fill="black"/>
<path d="M95.9044 24.0817C95.9044 24.1156 95.8856 24.3607 95.8516 24.8169H88.571C88.7029 25.4013 89.0121 25.8613 89.5023 26.2007C89.9924 26.54 90.5995 26.7097 91.3271 26.7097C91.8286 26.7097 92.2697 26.638 92.6506 26.4985C93.0427 26.3477 93.4084 26.1139 93.7402 25.7972L95.2258 27.3733C94.3209 28.3875 92.9937 28.8965 91.2555 28.8965C90.1696 28.8965 89.2082 28.6929 88.3749 28.2857C87.5379 27.8672 86.8969 27.2865 86.4407 26.5513C85.9882 25.8161 85.762 24.9828 85.762 24.0477C85.762 23.124 85.9845 22.2983 86.4256 21.563C86.878 20.8165 87.4926 20.2396 88.2656 19.8286C89.0536 19.4101 89.9283 19.199 90.8973 19.199C91.8399 19.199 92.692 19.3988 93.4537 19.7947C94.2153 20.1906 94.8148 20.7637 95.2446 21.5102C95.6858 22.2417 95.9044 23.1014 95.9044 24.0817ZM90.9124 21.2614C90.2827 21.2614 89.7511 21.4348 89.3213 21.7855C88.8914 22.1361 88.6313 22.615 88.5333 23.222H93.2764C93.1822 22.6263 92.9183 22.155 92.4884 21.8043C92.0586 21.4424 91.5345 21.2614 90.9124 21.2614Z" fill="black"/>
<path d="M107.57 15.7679V28.7571H104.905V27.6712C104.211 28.4894 103.212 28.8966 101.9 28.8966C100.995 28.8966 100.169 28.6967 99.4299 28.3008C98.7022 27.9049 98.1291 27.3394 97.7106 26.6041C97.2921 25.8689 97.0847 25.0168 97.0847 24.0478C97.0847 23.0788 97.2921 22.2267 97.7106 21.4914C98.1291 20.7562 98.7022 20.1907 99.4299 19.7948C100.169 19.3989 100.991 19.199 101.9 19.199C103.129 19.199 104.086 19.5798 104.78 20.3377V15.7679H107.57ZM102.382 26.6532C103.087 26.6532 103.672 26.4194 104.135 25.9519C104.603 25.473 104.833 24.8358 104.833 24.044C104.833 23.2522 104.603 22.6188 104.135 22.155C103.672 21.6762 103.087 21.4387 102.382 21.4387C101.666 21.4387 101.078 21.6762 100.61 22.155C100.143 22.6226 99.9125 23.2522 99.9125 24.044C99.9125 24.8358 100.146 25.473 100.61 25.9519C101.074 26.4194 101.666 26.6532 102.382 26.6532Z" fill="black"/>
<path d="M109.795 19.3385H112.585V28.757H109.795V19.3385ZM111.19 18.0226C110.677 18.0226 110.258 17.8755 109.938 17.5852C109.617 17.2949 109.455 16.9329 109.455 16.4993C109.455 16.0657 109.617 15.7075 109.938 15.4134C110.262 15.1231 110.677 14.9761 111.19 14.9761C111.703 14.9761 112.121 15.1156 112.442 15.3946C112.762 15.6736 112.924 16.0243 112.924 16.4465C112.924 16.9028 112.762 17.2798 112.442 17.5852C112.121 17.8793 111.703 18.0226 111.19 18.0226Z" fill="black"/>
<path d="M121.381 28.297C121.106 28.4968 120.767 28.6476 120.363 28.7532C119.967 28.8475 119.553 28.8927 119.111 28.8927C117.965 28.8927 117.079 28.6062 116.446 28.0368C115.827 27.4637 115.518 26.6267 115.518 25.5144V21.646H114.033V19.5458H115.518V17.2534H118.308V19.5458H120.706V21.646H118.308V25.4805C118.308 25.8764 118.41 26.1856 118.614 26.408C118.829 26.6191 119.127 26.7247 119.507 26.7247C119.948 26.7247 120.326 26.6078 120.635 26.3741L121.381 28.297Z" fill="black"/>
</svg>
