<svg width="210" height="70" viewBox="0 0 210 70" fill="none" xmlns="http://www.w3.org/2000/svg">
<g clip-path="url(#clip0_11_2364)">
<rect width="210" height="70" fill="white"/>
<rect width="210" height="70" fill="white"/>
<path d="M71.2216 41.3C69.2866 41.3 67.6826 40.706 66.4096 39.5178C65.1365 38.3126 64.5 36.7511 64.5 34.833C64.5 32.9319 65.1365 31.3873 66.4096 30.1992C67.6826 28.994 69.2866 28.3915 71.2216 28.3915C72.4438 28.3915 73.4791 28.6121 74.3278 29.0535C75.1935 29.4948 75.8385 30.0294 76.2628 30.6574L73.7168 33.0253C73.1906 32.2445 72.4183 31.8541 71.3998 31.8541C70.5681 31.8541 69.8807 32.1257 69.3375 32.6688C68.7944 33.1951 68.5228 33.9164 68.5228 34.833C68.5228 35.7496 68.7944 36.4795 69.3375 37.0226C69.8807 37.5658 70.5681 37.8374 71.3998 37.8374C72.3844 37.8374 73.1567 37.4385 73.7168 36.6407L76.2628 39.034C75.8385 39.662 75.1935 40.1968 74.3278 40.6381C73.4791 41.0794 72.4438 41.3 71.2216 41.3Z" fill="#34477D"/>
<path d="M89.2223 40.9945H85.3014V39.7724C84.911 40.2307 84.3678 40.6041 83.6719 40.8927C82.9929 41.1642 82.263 41.3 81.4823 41.3C80.4129 41.3 79.4369 40.9521 78.5543 40.2562C77.6886 39.5433 77.2558 38.5418 77.2558 37.2518C77.2558 35.8939 77.6801 34.9009 78.5288 34.2729C79.3775 33.6279 80.362 33.3054 81.4823 33.3054C83.2645 33.3054 84.5375 33.7806 85.3014 34.7311V33.2545C85.3014 32.7113 85.0807 32.2785 84.6394 31.9559C84.1981 31.6335 83.587 31.4722 82.8062 31.4722C81.4993 31.4722 80.3365 31.9051 79.3181 32.7707L77.9178 30.301C79.4115 29.028 81.2701 28.3915 83.4937 28.3915C84.2745 28.3915 84.9874 28.4763 85.6324 28.646C86.2943 28.7988 86.8969 29.0535 87.4401 29.4099C88.0002 29.7664 88.4331 30.2756 88.7385 30.9375C89.0611 31.5995 89.2223 32.3888 89.2223 33.3054V40.9945ZM83.1117 38.7285C84.1641 38.7285 84.894 38.4315 85.3014 37.8374V36.7426C84.877 36.1654 84.1472 35.8769 83.1117 35.8769C82.5516 35.8769 82.0848 36.0042 81.7114 36.2588C81.338 36.4965 81.1513 36.8444 81.1513 37.3027C81.1513 37.761 81.338 38.1175 81.7114 38.372C82.0848 38.6097 82.5516 38.7285 83.1117 38.7285Z" fill="#34477D"/>
<path d="M96.7785 41.3C95.6752 41.3 94.5974 41.1303 93.545 40.7908C92.5096 40.4513 91.6694 39.9931 91.0244 39.416L92.6539 36.7171C93.1291 37.1415 93.7911 37.5233 94.6398 37.8628C95.5055 38.1854 96.2863 38.3466 96.9822 38.3466C98.0855 38.3466 98.6371 38.0326 98.6371 37.4046C98.6371 37.116 98.3911 36.9038 97.8988 36.7681C97.4065 36.6153 96.8125 36.488 96.1165 36.3861C95.4206 36.2673 94.7162 36.0976 94.0033 35.8769C93.3074 35.6562 92.7133 35.2574 92.2211 34.6803C91.7288 34.1031 91.4827 33.3563 91.4827 32.4397C91.4827 31.3024 91.9495 30.3435 92.8831 29.5627C93.8166 28.7819 95.1066 28.3915 96.7531 28.3915C98.6881 28.3915 100.402 28.9346 101.896 30.0209L100.394 32.618C100.004 32.2445 99.4773 31.9305 98.8154 31.6759C98.1534 31.4043 97.4744 31.2685 96.7785 31.2685C96.3202 31.2685 95.9468 31.3534 95.6583 31.5231C95.3697 31.6929 95.2254 31.9051 95.2254 32.1596C95.2254 32.4143 95.4715 32.6095 95.9638 32.7452C96.456 32.864 97.0501 32.9914 97.746 33.1272C98.442 33.246 99.1379 33.4242 99.8338 33.6618C100.547 33.8995 101.149 34.3238 101.642 34.9348C102.134 35.5289 102.38 36.2927 102.38 37.2263C102.38 38.4315 101.879 39.416 100.878 40.1798C99.8763 40.9266 98.5099 41.3 96.7785 41.3Z" fill="#34477D"/>
<path d="M116.673 40.9945H112.752V33.8401C112.752 32.5161 112.073 31.8541 110.715 31.8541C109.782 31.8541 108.992 32.253 108.347 33.0508V40.9945H104.426V24.0122H108.347V30.1992C109.383 28.994 110.8 28.3915 112.599 28.3915C113.957 28.3915 114.976 28.7394 115.655 29.4353C116.333 30.1143 116.673 31.0479 116.673 32.236V40.9945Z" fill="#34477D"/>
<path fill-rule="evenodd" clip-rule="evenodd" d="M133.347 29.8864L142.871 40.8194H134.084L128.97 34.8927L133.347 29.8864ZM119.202 23.8H127.923L130.168 26.3548L126.979 29.9757L126.974 29.971L125.781 31.3329L119.202 23.8Z" fill="#34477D"/>
<path fill-rule="evenodd" clip-rule="evenodd" d="M127.843 30.9572L119.202 40.8194H127.989L130.454 37.9969L142.871 23.8H134.15L127.843 30.9572Z" fill="#34477D"/>
<path fill-rule="evenodd" clip-rule="evenodd" d="M119.202 23.8L125.786 31.3329L126.979 29.971L126.984 29.9757L130.172 26.3548L127.923 23.8H119.202Z" fill="#E3B458"/>
</g>
<defs>
<clipPath id="clip0_11_2364">
<rect width="210" height="70" fill="white"/>
</clipPath>
</defs>
</svg>
