<svg width="140" height="33" viewBox="0 0 140 33" fill="none" xmlns="http://www.w3.org/2000/svg">
<g clip-path="url(#clip0_12_2392)">
<path d="M45.8115 27.4446C44.4078 27.4446 43.1654 27.1885 42.0841 26.6763C41.0029 26.1641 40.1398 25.4244 39.4949 24.457C38.8689 23.4706 38.5275 22.2945 38.4706 20.9288C38.4516 20.6253 38.4421 20.2459 38.4421 19.7907C38.4421 19.3164 38.4516 18.9276 38.4706 18.6241C38.5275 17.2393 38.8689 16.0633 39.4949 15.0959C40.1209 14.1095 40.9745 13.3602 42.0557 12.8481C43.1559 12.3359 44.4078 12.0798 45.8115 12.0798C47.1204 12.0798 48.2396 12.2695 49.1691 12.6489C50.0985 13.0092 50.8573 13.4646 51.4453 14.0146C52.0333 14.5647 52.4697 15.1338 52.7541 15.7218C53.0577 16.2909 53.2189 16.7936 53.2379 17.2299C53.2568 17.4196 53.1904 17.5902 53.0387 17.742C52.8869 17.8748 52.7162 17.9412 52.5265 17.9412H48.9129C48.7043 17.9412 48.5431 17.8938 48.4293 17.7989C48.3155 17.704 48.2111 17.5618 48.1163 17.3721C47.8887 16.7841 47.5946 16.3668 47.2343 16.1202C46.8927 15.8736 46.447 15.7503 45.8969 15.7503C45.1382 15.7503 44.5502 15.9968 44.1328 16.4901C43.7345 16.9833 43.5163 17.742 43.4784 18.7663C43.4594 19.5251 43.4594 20.1985 43.4784 20.7865C43.5163 21.8298 43.7345 22.5886 44.1328 23.0628C44.5502 23.537 45.1382 23.7741 45.8969 23.7741C46.485 23.7741 46.9497 23.6508 47.2911 23.4042C47.6325 23.1576 47.9076 22.7403 48.1163 22.1523C48.2111 21.9626 48.3155 21.8203 48.4293 21.7255C48.5431 21.6306 48.7043 21.5832 48.9129 21.5832H52.5265C52.7162 21.5832 52.8869 21.6591 53.0387 21.8109C53.1904 21.9436 53.2568 22.1049 53.2379 22.2945C53.2189 22.617 53.1241 22.9964 52.9533 23.4327C52.7827 23.85 52.517 24.2958 52.1567 24.7699C51.7962 25.2442 51.322 25.69 50.7339 26.1073C50.1649 26.5057 49.4726 26.8281 48.6569 27.0747C47.8412 27.3213 46.8927 27.4446 45.8115 27.4446Z" fill="#111614"/>
<path d="M62.623 27.4446C60.3847 27.4446 58.6016 26.8376 57.2738 25.6235C55.946 24.4096 55.2536 22.6075 55.1967 20.2175C55.1967 20.0847 55.1967 19.9139 55.1967 19.7053C55.1967 19.4966 55.1967 19.3354 55.1967 19.2216C55.2536 17.7231 55.5855 16.4427 56.1926 15.3804C56.8186 14.2992 57.6722 13.4835 58.7534 12.9334C59.8535 12.3643 61.1339 12.0798 62.5946 12.0798C64.2638 12.0798 65.639 12.4118 66.7202 13.0757C67.8205 13.7396 68.6456 14.6406 69.1957 15.7787C69.7458 16.9169 70.0208 18.2162 70.0208 19.6769V20.3597C70.0208 20.5684 69.9449 20.7391 69.7932 20.8719C69.6605 21.0046 69.4992 21.0711 69.3096 21.0711H60.2044C60.2044 21.09 60.2044 21.1184 60.2044 21.1564C60.2044 21.1943 60.2044 21.2323 60.2044 21.2702C60.2235 21.8203 60.3182 22.323 60.489 22.7783C60.6598 23.2335 60.9253 23.5939 61.2857 23.8595C61.6461 24.125 62.0824 24.2578 62.5946 24.2578C62.9739 24.2578 63.2869 24.2009 63.5335 24.0871C63.7991 23.9543 64.0172 23.8121 64.188 23.6603C64.3586 23.4895 64.4914 23.3473 64.5863 23.2335C64.757 23.0438 64.8898 22.93 64.9846 22.8921C65.0984 22.8351 65.2692 22.8067 65.4968 22.8067H69.025C69.2147 22.8067 69.3664 22.8636 69.4802 22.9774C69.613 23.0723 69.6699 23.2145 69.651 23.4042C69.632 23.7267 69.4708 24.1155 69.1672 24.5708C68.8637 25.0261 68.418 25.4813 67.83 25.9365C67.2609 26.3728 66.5401 26.7333 65.6676 27.0177C64.7949 27.3023 63.7801 27.4446 62.623 27.4446ZM60.2044 18.2542H65.0131V18.1973C65.0131 17.5902 64.9182 17.0591 64.7286 16.6039C64.5578 16.1486 64.2828 15.7977 63.9034 15.5511C63.543 15.3045 63.1068 15.1812 62.5946 15.1812C62.0824 15.1812 61.6461 15.3045 61.2857 15.5511C60.9442 15.7977 60.6787 16.1486 60.489 16.6039C60.2993 17.0591 60.2044 17.5902 60.2044 18.1973V18.2542Z" fill="#111614"/>
<path d="M74.8092 32.5662C74.6385 32.5662 74.4962 32.5094 74.3824 32.3955C74.2686 32.2817 74.2118 32.1394 74.2118 31.9688C74.2118 31.9308 74.2118 31.8739 74.2118 31.798C74.2307 31.7411 74.2591 31.6747 74.297 31.5988L76.5164 26.2496L71.0534 13.3318C70.9964 13.199 70.968 13.0852 70.968 12.9904C71.006 12.8197 71.0818 12.6774 71.1956 12.5636C71.3094 12.4308 71.4518 12.3644 71.6224 12.3644H74.8662C75.1127 12.3644 75.293 12.4308 75.4068 12.5636C75.5395 12.6774 75.6249 12.8102 75.6628 12.9619L78.935 21.2418L82.264 12.9619C82.3398 12.8102 82.4347 12.6774 82.5485 12.5636C82.6813 12.4308 82.8709 12.3644 83.1176 12.3644H86.3043C86.4752 12.3644 86.6174 12.4308 86.7308 12.5636C86.8636 12.6774 86.9305 12.8102 86.9305 12.9619C86.9305 13.0568 86.9017 13.1801 86.845 13.3318L78.7927 31.9688C78.7358 32.1205 78.6409 32.2532 78.5082 32.3671C78.3753 32.4999 78.1857 32.5662 77.9391 32.5662H74.8092Z" fill="#111614"/>
<path d="M90.1365 27.1601C89.947 27.1601 89.7854 27.1032 89.6525 26.9893C89.5392 26.8566 89.4816 26.6953 89.4816 26.5057V7.61268C89.4816 7.42299 89.5392 7.27124 89.6525 7.15743C89.7854 7.02464 89.947 6.95825 90.1365 6.95825H91.4735C91.6825 6.95825 91.8432 7.02464 91.9575 7.15743C92.0708 7.27124 92.1284 7.42299 92.1284 7.61268V26.5057C92.1284 26.6953 92.0708 26.8566 91.9575 26.9893C91.8432 27.1032 91.6825 27.1601 91.4735 27.1601H90.1365Z" fill="#111614"/>
<path d="M101.786 27.4446C100.345 27.4446 99.1405 27.1695 98.1725 26.6195C97.2053 26.0694 96.4658 25.3106 95.953 24.3431C95.4411 23.3568 95.1568 22.2377 95.1001 20.9857C95.0806 20.6632 95.0713 20.2554 95.0713 19.7622C95.0713 19.2501 95.0806 18.8422 95.1001 18.5387C95.1568 17.2678 95.4411 16.1486 95.953 15.1812C96.4844 14.2138 97.2341 13.4551 98.2012 12.9049C99.1684 12.3548 100.364 12.0798 101.786 12.0798C103.209 12.0798 104.404 12.3548 105.372 12.9049C106.339 13.4551 107.078 14.2138 107.591 15.1812C108.122 16.1486 108.416 17.2678 108.473 18.5387C108.492 18.8422 108.501 19.2501 108.501 19.7622C108.501 20.2554 108.492 20.6632 108.473 20.9857C108.416 22.2377 108.132 23.3568 107.619 24.3431C107.107 25.3106 106.367 26.0694 105.399 26.6195C104.432 27.1695 103.228 27.4446 101.786 27.4446ZM101.786 25.2537C102.963 25.2537 103.901 24.8837 104.603 24.144C105.305 23.3852 105.685 22.285 105.741 20.8434C105.76 20.5589 105.77 20.1985 105.77 19.7622C105.77 19.326 105.76 18.9655 105.741 18.681C105.685 17.2393 105.305 16.1486 104.603 15.4089C103.901 14.6501 102.963 14.2707 101.786 14.2707C100.61 14.2707 99.6617 14.6501 98.9408 15.4089C98.2393 16.1486 97.8696 17.2393 97.8315 18.681C97.812 18.9655 97.8027 19.326 97.8027 19.7622C97.8027 20.1985 97.812 20.5589 97.8315 20.8434C97.8696 22.285 98.2393 23.3852 98.9408 24.144C99.6617 24.8837 100.61 25.2537 101.786 25.2537Z" fill="#111614"/>
<path d="M115.543 27.4446C114.595 27.4446 113.732 27.2549 112.954 26.8755C112.176 26.4962 111.55 25.984 111.076 25.3391C110.602 24.6941 110.365 23.9638 110.365 23.1481C110.365 21.8393 110.896 20.796 111.958 20.0183C113.02 19.2406 114.405 18.7284 116.113 18.4818L120.352 17.8843V17.0591C120.352 16.1486 120.086 15.4373 119.555 14.9251C119.043 14.413 118.199 14.1569 117.023 14.1569C116.169 14.1569 115.477 14.3276 114.946 14.6691C114.434 15.0105 114.073 15.4468 113.864 15.9779C113.751 16.2625 113.551 16.4047 113.267 16.4047H111.987C111.778 16.4047 111.617 16.3478 111.503 16.234C111.408 16.1012 111.361 15.9495 111.361 15.7787C111.361 15.4942 111.465 15.1432 111.674 14.726C111.901 14.3087 112.242 13.9008 112.698 13.5025C113.153 13.1041 113.732 12.7722 114.434 12.5066C115.154 12.2221 116.027 12.0798 117.051 12.0798C118.189 12.0798 119.147 12.2315 119.925 12.5351C120.703 12.8196 121.31 13.2084 121.746 13.7017C122.202 14.1949 122.524 14.7544 122.713 15.3804C122.922 16.0063 123.027 16.6418 123.027 17.2867V26.5057C123.027 26.6953 122.96 26.8566 122.827 26.9893C122.713 27.1031 122.562 27.1601 122.372 27.1601H121.063C120.854 27.1601 120.693 27.1031 120.579 26.9893C120.465 26.8566 120.409 26.6953 120.409 26.5057V25.2821C120.162 25.6235 119.83 25.965 119.413 26.3065C118.995 26.6289 118.474 26.9039 117.848 27.1316C117.222 27.3402 116.454 27.4446 115.543 27.4446ZM116.141 25.3105C116.918 25.3105 117.63 25.1494 118.275 24.8269C118.919 24.4855 119.422 23.9638 119.782 23.2619C120.162 22.5601 120.352 21.6781 120.352 20.6158V19.8191L117.051 20.3028C115.705 20.4925 114.689 20.8149 114.007 21.2702C113.324 21.7065 112.983 22.2661 112.983 22.9489C112.983 23.4801 113.134 23.9259 113.438 24.2863C113.76 24.6277 114.159 24.8838 114.633 25.0545C115.126 25.2253 115.629 25.3105 116.141 25.3105Z" fill="#111614"/>
<path d="M127.124 27.1601C126.935 27.1601 126.773 27.1031 126.64 26.9893C126.527 26.8566 126.47 26.6953 126.47 26.5057V13.0188C126.47 12.8291 126.527 12.6773 126.64 12.5635C126.773 12.4307 126.935 12.3643 127.124 12.3643H128.462C128.652 12.3643 128.803 12.4307 128.917 12.5635C129.049 12.6773 129.116 12.8291 129.116 13.0188V14.2707C129.61 13.6258 130.226 13.1041 130.966 12.7058C131.724 12.2885 132.692 12.0798 133.868 12.0798C135.101 12.0798 136.144 12.3548 136.998 12.9049C137.871 13.436 138.525 14.1853 138.961 15.1528C139.397 16.1012 139.615 17.2109 139.615 18.4818V26.5057C139.615 26.6953 139.559 26.8566 139.444 26.9893C139.331 27.1031 139.18 27.1601 138.989 27.1601H137.567C137.377 27.1601 137.216 27.1031 137.083 26.9893C136.969 26.8566 136.913 26.6953 136.913 26.5057V18.6241C136.913 17.2963 136.59 16.2625 135.945 15.5227C135.3 14.7639 134.351 14.3845 133.1 14.3845C131.924 14.3845 130.975 14.7639 130.254 15.5227C129.553 16.2625 129.202 17.2963 129.202 18.6241V26.5057C129.202 26.6953 129.135 26.8566 129.002 26.9893C128.889 27.1031 128.737 27.1601 128.547 27.1601H127.124Z" fill="#111614"/>
<path fill-rule="evenodd" clip-rule="evenodd" d="M22.5739 20.2528C21.192 24.4932 18.4072 27.6285 16.7662 29.201C18.5631 29.406 22.1816 29.4884 25.0711 27.4534C29.4866 24.3437 29.7467 19.5496 29.7467 19.5496C29.7467 19.5496 26.2075 18.673 22.5739 20.2528ZM13.6857 28.331C10.7247 27.1093 5.13575 24.0881 2.09178 17.8552C-2.2646 8.93486 1.53528 0 1.53528 0C1.53528 0 7.26972 1.24328 11.9436 6.46005C10.5314 8.77595 9.33101 11.7298 9.15484 15.2176C8.85759 21.1058 11.7145 25.8149 13.6857 28.331Z" fill="#7ECE3E"/>
<path d="M16.9002 2.8772C16.9002 2.8772 22.426 7.70663 22.0097 15.9514C21.6317 23.4391 15.568 28.3406 15.568 28.3406C15.568 28.3406 10.1118 23.0096 10.4976 15.3701C10.891 7.57887 16.9002 2.8772 16.9002 2.8772Z" fill="#7ECE3E"/>
<path fill-rule="evenodd" clip-rule="evenodd" d="M12.8253 7.77051C13.7376 8.89763 14.5906 10.199 15.3231 11.6991C18.1433 17.4738 17.1353 23.4686 16.3152 26.4557C16.9752 24.8744 18.2374 22.6484 20.4971 21.0569C20.6517 20.948 20.8074 20.8451 20.9638 20.7478C19.1294 25.4627 15.5685 28.3411 15.5685 28.3411C15.5685 28.3411 10.1124 23.01 10.4981 15.3706C10.6513 12.3372 11.6557 9.77213 12.8253 7.77051Z" fill="#27A013"/>
</g>
<defs>
<clipPath id="clip0_12_2392">
<rect width="139.615" height="33" fill="white"/>
</clipPath>
</defs>
</svg>
