<svg width="105" height="52" viewBox="0 0 105 52" fill="none" xmlns="http://www.w3.org/2000/svg">
<g clip-path="url(#clip0_12_2405)">
<path d="M98.51 9.05284C98.2586 8.75235 97.9066 8.60211 97.454 8.60211C96.6996 8.60211 96.0459 9.20308 96.0459 10.0044C96.0459 10.3549 96.1967 10.7055 96.3979 10.9058C100.17 15.0626 102.231 20.4212 102.231 26.0303C102.231 38.5506 92.0228 48.717 79.4508 48.717C66.8787 48.717 56.6702 38.5506 56.6702 26.0303C56.6702 13.5101 66.8787 3.3436 79.4508 3.3436C81.4623 3.3436 83.4235 3.59401 85.3345 4.09482C85.4351 4.1449 85.5859 4.1449 85.6865 4.1449C86.4408 4.1449 87.0946 3.54393 87.0946 2.74263C87.0946 2.09158 86.642 1.59076 86.0888 1.39044C83.9264 0.839549 81.7137 0.539062 79.4508 0.539062C65.37 0.539062 53.9043 11.9575 53.9043 25.9802C53.9043 40.0029 65.37 51.4214 79.4508 51.4214C93.5315 51.4214 104.997 40.0029 104.997 25.9802C105.047 19.7702 102.734 13.7104 98.51 9.05284Z" fill="#6552D8"/>
<path d="M88.6532 7.80077H90.3127V9.45344C90.3127 10.2047 90.9162 10.8557 91.7208 10.8557C92.4751 10.8557 93.1289 10.2547 93.1289 9.45344V7.80077H94.7884C95.5427 7.80077 96.1964 7.19979 96.1964 6.3985C96.1964 5.64728 95.593 4.99623 94.7884 4.99623H93.1289V3.34355C93.1289 2.59234 92.5254 1.94128 91.7208 1.94128C90.9665 1.94128 90.3127 2.54226 90.3127 3.34355V4.99623H88.6532C87.8989 4.99623 87.2451 5.5972 87.2451 6.3985C87.2954 7.14971 87.8989 7.80077 88.6532 7.80077Z" fill="#6552D8"/>
<path d="M0.756271 31.9277V16.8011H3.68262V31.9277H0.756271ZM2.908 31.9277V29.3241H10.6112V31.9277H2.908ZM17.0226 32.1429C15.9755 32.1429 15.0287 31.9062 14.1824 31.4328C13.3504 30.9451 12.6833 30.2924 12.1813 29.4748C11.6935 28.6428 11.4497 27.7175 11.4497 26.699C11.4497 25.6806 11.6935 24.7697 12.1813 23.9664C12.669 23.1487 13.336 22.5032 14.1824 22.0298C15.0287 21.5421 15.9683 21.2982 17.0011 21.2982C18.0626 21.2982 19.0094 21.5421 19.8414 22.0298C20.6877 22.5032 21.3548 23.1487 21.8425 23.9664C22.3302 24.7697 22.5741 25.6806 22.5741 26.699C22.5741 27.7175 22.3302 28.6428 21.8425 29.4748C21.3548 30.2924 20.6877 30.9451 19.8414 31.4328C19.0094 31.9062 18.0698 32.1429 17.0226 32.1429ZM17.0011 29.5178C17.5319 29.5178 17.9981 29.403 18.3997 29.1735C18.8157 28.9297 19.1313 28.5997 19.3465 28.1837C19.576 27.7534 19.6908 27.2657 19.6908 26.7206C19.6908 26.1755 19.576 25.6949 19.3465 25.2789C19.117 24.8629 18.8014 24.5401 18.3997 24.3106C17.9981 24.0668 17.5319 23.9448 17.0011 23.9448C16.4847 23.9448 16.0257 24.0668 15.624 24.3106C15.2224 24.5401 14.9068 24.8629 14.6773 25.2789C14.4477 25.6949 14.333 26.1755 14.333 26.7206C14.333 27.2657 14.4477 27.7534 14.6773 28.1837C14.9068 28.5997 15.2224 28.9297 15.624 29.1735C16.0257 29.403 16.4847 29.5178 17.0011 29.5178ZM28.7352 32.1429C27.7885 32.1429 26.935 31.9062 26.1747 31.4328C25.4144 30.9595 24.8191 30.3139 24.3888 29.4963C23.9584 28.6786 23.7432 27.7606 23.7432 26.7421C23.7432 25.7093 23.9584 24.784 24.3888 23.9664C24.8191 23.1487 25.4144 22.5032 26.1747 22.0298C26.935 21.5564 27.7885 21.3197 28.7352 21.3197C29.4812 21.3197 30.1482 21.4704 30.7363 21.7716C31.3245 22.0728 31.7907 22.496 32.135 23.0411C32.4936 23.5719 32.6872 24.1744 32.7159 24.8486V28.5926C32.6872 29.2811 32.4936 29.8908 32.135 30.4215C31.7907 30.9523 31.3245 31.3755 30.7363 31.691C30.1482 31.9923 29.4812 32.1429 28.7352 32.1429ZM29.2517 29.5393C30.0406 29.5393 30.679 29.2811 31.1667 28.7647C31.6544 28.2339 31.8983 27.5526 31.8983 26.7206C31.8983 26.1755 31.7835 25.6949 31.554 25.2789C31.3388 24.8486 31.0304 24.5186 30.6288 24.2891C30.2415 24.0453 29.7824 23.9233 29.2517 23.9233C28.7352 23.9233 28.2762 24.0453 27.8746 24.2891C27.4872 24.5186 27.1788 24.8486 26.9493 25.2789C26.7341 25.6949 26.6266 26.1755 26.6266 26.7206C26.6266 27.28 26.7341 27.7749 26.9493 28.2053C27.1788 28.6213 27.4872 28.9512 27.8746 29.195C28.2762 29.4246 28.7352 29.5393 29.2517 29.5393ZM31.7477 31.9277V29.1305L32.1995 26.5915L31.7477 24.0955V21.5349H34.5449V31.9277H31.7477ZM44.0317 31.9277V25.9675C44.0317 25.3506 43.838 24.8486 43.4507 24.4613C43.0634 24.0739 42.5613 23.8803 41.9445 23.8803C41.5428 23.8803 41.1842 23.9664 40.8686 24.1385C40.553 24.3106 40.302 24.5545 40.1155 24.8701C39.9434 25.1857 39.8573 25.5515 39.8573 25.9675L38.7599 25.408C38.7599 24.5904 38.9321 23.8803 39.2763 23.2778C39.635 22.661 40.1227 22.1804 40.7395 21.8361C41.3707 21.4919 42.0808 21.3197 42.8697 21.3197C43.63 21.3197 44.3114 21.5134 44.9139 21.9007C45.5163 22.2737 45.9897 22.7686 46.334 23.3854C46.6783 23.9879 46.8504 24.6406 46.8504 25.3435V31.9277H44.0317ZM37.0385 31.9277V21.5349H39.8573V31.9277H37.0385Z" fill="#0C122A"/>
<path d="M67.0153 32.1429C66.2264 32.1429 65.5235 31.9779 64.9066 31.648C64.2898 31.3037 63.8021 30.8375 63.4435 30.2494C63.0992 29.6613 62.9271 28.9942 62.9271 28.2483V25.2789C62.9271 24.533 63.1064 23.8659 63.465 23.2778C63.8236 22.6897 64.3113 22.2306 64.9282 21.9007C65.545 21.5564 66.2407 21.3843 67.0153 21.3843C67.9477 21.3843 68.7869 21.6281 69.5329 22.1159C70.2931 22.5893 70.8884 23.2348 71.3188 24.0524C71.7635 24.8557 71.9858 25.7666 71.9858 26.7851C71.9858 27.7893 71.7635 28.7001 71.3188 29.5178C70.8884 30.3211 70.2931 30.9595 69.5329 31.4328C68.7869 31.9062 67.9477 32.1429 67.0153 32.1429ZM66.628 29.9051C67.2018 29.9051 67.7039 29.776 68.1342 29.5178C68.5789 29.2453 68.9232 28.8723 69.1671 28.3989C69.4253 27.9255 69.5544 27.3804 69.5544 26.7636C69.5544 26.1468 69.4253 25.6017 69.1671 25.1283C68.9232 24.6549 68.5789 24.2891 68.1342 24.0309C67.7039 23.7584 67.2018 23.6221 66.628 23.6221C66.0542 23.6221 65.545 23.7584 65.1003 24.0309C64.6556 24.2891 64.3113 24.6549 64.0675 25.1283C63.8236 25.6017 63.7017 26.1468 63.7017 26.7636C63.7017 27.3804 63.8236 27.9255 64.0675 28.3989C64.3113 28.8723 64.6556 29.2453 65.1003 29.5178C65.545 29.776 66.0542 29.9051 66.628 29.9051ZM61.4854 36.2312V21.5995H63.8523V24.3752L63.4435 26.8927L63.8523 29.3887V36.2312H61.4854ZM73.9671 31.9277V16.4353H76.334V31.9277H73.9671ZM83.2071 32.1429C82.332 32.1429 81.5502 31.9493 80.8617 31.5619C80.1875 31.1746 79.6567 30.6439 79.2694 29.9697C78.8964 29.2811 78.71 28.4921 78.71 27.6028V21.5995H81.0769V27.4952C81.0769 27.9973 81.1557 28.4276 81.3135 28.7862C81.4857 29.1305 81.7295 29.3959 82.0451 29.5824C82.3751 29.7688 82.7624 29.8621 83.2071 29.8621C83.8956 29.8621 84.4192 29.6613 84.7778 29.2596C85.1508 28.8436 85.3373 28.2555 85.3373 27.4952V21.5995H87.7042V27.6028C87.7042 28.5065 87.5105 29.3026 87.1232 29.9912C86.7502 30.6654 86.2266 31.1961 85.5524 31.5835C84.8782 31.9564 84.0964 32.1429 83.2071 32.1429ZM93.4622 32.1429C92.8884 32.1429 92.3361 32.0712 91.8054 31.9277C91.2746 31.7699 90.7869 31.5548 90.3422 31.2822C89.8975 30.9953 89.5102 30.651 89.1803 30.2494L90.6865 28.7432C91.0451 29.1592 91.4539 29.4748 91.913 29.6899C92.3863 29.8908 92.9171 29.9912 93.5052 29.9912C94.036 29.9912 94.4377 29.9123 94.7102 29.7545C94.9828 29.5967 95.119 29.3672 95.119 29.0659C95.119 28.7504 94.9899 28.5065 94.7317 28.3344C94.4735 28.1622 94.1364 28.0188 93.7204 27.904C93.3188 27.7749 92.8884 27.6458 92.4294 27.5167C91.9847 27.3876 91.5543 27.2155 91.1383 27.0003C90.7367 26.7708 90.4068 26.4624 90.1486 26.075C89.8903 25.6877 89.7612 25.1857 89.7612 24.5688C89.7612 23.909 89.9119 23.3424 90.2131 22.869C90.5287 22.3956 90.9662 22.0298 91.5257 21.7716C92.0995 21.5134 92.7808 21.3843 93.5698 21.3843C94.4018 21.3843 95.1334 21.5349 95.7646 21.8361C96.4101 22.123 96.948 22.5606 97.3783 23.1487L95.8721 24.6549C95.5709 24.2819 95.2266 24.0022 94.8393 23.8157C94.452 23.6293 94.0073 23.536 93.5052 23.536C93.0319 23.536 92.6661 23.6077 92.4079 23.7512C92.1497 23.8946 92.0206 24.1026 92.0206 24.3752C92.0206 24.6621 92.1497 24.8844 92.4079 25.0422C92.6661 25.2 92.996 25.3363 93.3977 25.451C93.8137 25.5658 94.244 25.6949 94.6887 25.8384C95.1477 25.9675 95.5781 26.1539 95.9797 26.3978C96.3957 26.6273 96.7328 26.9429 96.991 27.3446C97.2492 27.7319 97.3783 28.2411 97.3783 28.8723C97.3783 29.8764 97.0269 30.6726 96.324 31.2607C95.6211 31.8488 94.6672 32.1429 93.4622 32.1429Z" fill="#6552D8"/>
</g>
<defs>
<clipPath id="clip0_12_2405">
<rect width="105" height="52" fill="white"/>
</clipPath>
</defs>
</svg>
