<svg width="153" height="31" viewBox="0 0 153 31" fill="none" xmlns="http://www.w3.org/2000/svg">
<path d="M14.3776 2.2022C14.7203 1.38396 15.8797 1.38396 16.2224 2.2022L19.1302 9.14492C19.2744 9.48915 19.5983 9.72446 19.9702 9.7552L27.4717 10.3753C28.3558 10.4484 28.7141 11.551 28.0418 12.1298L22.3374 17.0408C22.0546 17.2842 21.9309 17.665 22.0166 18.0282L23.7449 25.3542C23.9486 26.2176 23.0107 26.899 22.2525 26.4385L15.8191 22.5309C15.5002 22.3372 15.0998 22.3372 14.7809 22.5309L8.34752 26.4385C7.58931 26.899 6.65141 26.2176 6.8551 25.3542L8.58341 18.0282C8.6691 17.665 8.5454 17.2842 8.26257 17.0408L2.55823 12.1298C1.88594 11.551 2.24418 10.4484 3.12828 10.3753L10.6298 9.7552C11.0017 9.72446 11.3256 9.48915 11.4698 9.14492L14.3776 2.2022Z" fill="#FFCE00"/>
<path d="M44.9776 2.2022C45.3203 1.38396 46.4796 1.38396 46.8223 2.2022L49.7302 9.14492C49.8744 9.48915 50.1983 9.72446 50.5702 9.7552L58.0717 10.3753C58.9558 10.4484 59.314 11.551 58.6418 12.1298L52.9374 17.0408C52.6546 17.2842 52.5309 17.665 52.6166 18.0282L54.3449 25.3542C54.5486 26.2176 53.6107 26.899 52.8525 26.4385L46.4191 22.5309C46.1001 22.3372 45.6998 22.3372 45.3808 22.5309L38.9475 26.4385C38.1893 26.899 37.2514 26.2176 37.4551 25.3542L39.1834 18.0282C39.2691 17.665 39.1454 17.2842 38.8625 17.0408L33.1582 12.1298C32.4859 11.551 32.8442 10.4484 33.7283 10.3753L41.2298 9.7552C41.6017 9.72446 41.9256 9.48915 42.0697 9.14492L44.9776 2.2022Z" fill="#FFCE00"/>
<path d="M75.5776 2.2022C75.9204 1.38396 77.0797 1.38396 77.4224 2.2022L80.3302 9.14492C80.4744 9.48915 80.7983 9.72446 81.1702 9.7552L88.6717 10.3753C89.5558 10.4484 89.9141 11.551 89.2418 12.1298L83.5374 17.0408C83.2546 17.2842 83.1309 17.665 83.2166 18.0282L84.9449 25.3542C85.1486 26.2176 84.2107 26.899 83.4525 26.4385L77.0191 22.5309C76.7002 22.3372 76.2999 22.3372 75.9809 22.5309L69.5475 26.4385C68.7893 26.899 67.8514 26.2176 68.0551 25.3542L69.7834 18.0282C69.8691 17.665 69.7454 17.2842 69.4626 17.0408L63.7582 12.1298C63.086 11.551 63.4442 10.4484 64.3283 10.3753L71.8298 9.7552C72.2017 9.72446 72.5256 9.48915 72.6698 9.14492L75.5776 2.2022Z" fill="#FFCE00"/>
<path d="M106.178 2.2022C106.52 1.38396 107.68 1.38396 108.022 2.2022L110.93 9.14492C111.074 9.48915 111.398 9.72446 111.77 9.7552L119.272 10.3753C120.156 10.4484 120.514 11.551 119.842 12.1298L114.137 17.0408C113.855 17.2842 113.731 17.665 113.817 18.0282L115.545 25.3542C115.749 26.2176 114.811 26.899 114.052 26.4385L107.619 22.5309C107.3 22.3372 106.9 22.3372 106.581 22.5309L100.148 26.4385C99.3893 26.899 98.4514 26.2176 98.6551 25.3542L100.383 18.0282C100.469 17.665 100.345 17.2842 100.063 17.0408L94.3582 12.1298C93.6859 11.551 94.0442 10.4484 94.9283 10.3753L102.43 9.7552C102.802 9.72446 103.126 9.48915 103.27 9.14492L106.178 2.2022Z" fill="#FFCE00"/>
<path d="M136.778 2.2022C137.12 1.38396 138.28 1.38396 138.622 2.2022L141.53 9.14492C141.674 9.48915 141.998 9.72446 142.37 9.7552L149.872 10.3753C150.756 10.4484 151.114 11.551 150.442 12.1298L144.737 17.0408C144.455 17.2842 144.331 17.665 144.417 18.0282L146.145 25.3542C146.349 26.2176 145.411 26.899 144.652 26.4385L138.219 22.5309C137.9 22.3372 137.5 22.3372 137.181 22.5309L130.748 26.4385C129.989 26.899 129.051 26.2176 129.255 25.3542L130.983 18.0282C131.069 17.665 130.945 17.2842 130.663 17.0408L124.958 12.1298C124.286 11.551 124.644 10.4484 125.528 10.3753L133.03 9.7552C133.402 9.72446 133.726 9.48915 133.87 9.14492L136.778 2.2022Z" fill="#FFCE00"/>
</svg>
