<svg width="175" height="35" viewBox="0 0 175 35" fill="none" xmlns="http://www.w3.org/2000/svg">
<path d="M15.6553 4.4044C16.3407 2.76792 18.6593 2.76792 19.3447 4.4044L21.6801 9.9802C21.9684 10.6687 22.6162 11.1393 23.36 11.2008L29.3846 11.6988C31.1528 11.845 31.8693 14.0501 30.5247 15.2077L25.9435 19.1518C25.3778 19.6387 25.1304 20.4002 25.3018 21.1267L26.6898 27.0103C27.0972 28.7371 25.2214 30.0999 23.705 29.1789L18.5383 26.0406C17.9003 25.6532 17.0997 25.6532 16.4617 26.0406L11.295 29.1789C9.7786 30.0999 7.9028 28.7371 8.31018 27.0103L9.69821 21.1267C9.8696 20.4002 9.62219 19.6387 9.05653 19.1517L4.47529 15.2077C3.13071 14.0501 3.84721 11.845 5.6154 11.6988L11.64 11.2008C12.3838 11.1393 13.0316 10.6687 13.3199 9.9802L15.6553 4.4044Z" fill="#FFCE00"/>
<path d="M50.6553 4.4044C51.3407 2.76792 53.6593 2.76792 54.3447 4.4044L56.6801 9.9802C56.9684 10.6687 57.6162 11.1393 58.36 11.2008L64.3846 11.6988C66.1528 11.845 66.8693 14.0501 65.5247 15.2077L60.9435 19.1518C60.3778 19.6387 60.1304 20.4002 60.3018 21.1267L61.6898 27.0103C62.0972 28.7371 60.2214 30.0999 58.705 29.1789L53.5383 26.0406C52.9003 25.6532 52.0997 25.6532 51.4617 26.0406L46.295 29.1789C44.7786 30.0999 42.9028 28.7371 43.3102 27.0103L44.6982 21.1267C44.8696 20.4002 44.6222 19.6387 44.0565 19.1517L39.4753 15.2077C38.1307 14.0501 38.8472 11.845 40.6154 11.6988L46.64 11.2008C47.3838 11.1393 48.0316 10.6687 48.3199 9.9802L50.6553 4.4044Z" fill="#FFCE00"/>
<path d="M85.6553 4.4044C86.3407 2.76792 88.6593 2.76792 89.3447 4.4044L91.6801 9.9802C91.9684 10.6687 92.6162 11.1393 93.36 11.2008L99.3846 11.6988C101.153 11.845 101.869 14.0501 100.525 15.2077L95.9435 19.1518C95.3778 19.6387 95.1304 20.4002 95.3018 21.1267L96.6898 27.0103C97.0972 28.7371 95.2214 30.0999 93.705 29.1789L88.5383 26.0406C87.9003 25.6532 87.0997 25.6532 86.4617 26.0406L81.295 29.1789C79.7786 30.0999 77.9028 28.7371 78.3102 27.0103L79.6982 21.1267C79.8696 20.4002 79.6222 19.6387 79.0565 19.1517L74.4753 15.2077C73.1307 14.0501 73.8472 11.845 75.6154 11.6988L81.64 11.2008C82.3838 11.1393 83.0316 10.6687 83.3199 9.9802L85.6553 4.4044Z" fill="#FFCE00"/>
<path d="M120.655 4.4044C121.341 2.76792 123.659 2.76792 124.345 4.4044L126.68 9.9802C126.968 10.6687 127.616 11.1393 128.36 11.2008L134.385 11.6988C136.153 11.845 136.869 14.0501 135.525 15.2077L130.943 19.1518C130.378 19.6387 130.13 20.4002 130.302 21.1267L131.69 27.0103C132.097 28.7371 130.221 30.0999 128.705 29.1789L123.538 26.0406C122.9 25.6532 122.1 25.6532 121.462 26.0406L116.295 29.1789C114.779 30.0999 112.903 28.7371 113.31 27.0103L114.698 21.1267C114.87 20.4002 114.622 19.6387 114.057 19.1517L109.475 15.2077C108.131 14.0501 108.847 11.845 110.615 11.6988L116.64 11.2008C117.384 11.1393 118.032 10.6687 118.32 9.9802L120.655 4.4044Z" fill="#FFCE00"/>
<path d="M155.655 4.4044C156.341 2.76792 158.659 2.76792 159.345 4.4044L161.68 9.9802C161.968 10.6687 162.616 11.1393 163.36 11.2008L169.385 11.6988C171.153 11.845 171.869 14.0501 170.525 15.2077L165.943 19.1518C165.378 19.6387 165.13 20.4002 165.302 21.1267L166.69 27.0103C167.097 28.7371 165.221 30.0999 163.705 29.1789L158.538 26.0406C157.9 25.6532 157.1 25.6532 156.462 26.0406L151.295 29.1789C149.779 30.0999 147.903 28.7371 148.31 27.0103L149.698 21.1267C149.87 20.4002 149.622 19.6387 149.057 19.1517L144.475 15.2077C143.131 14.0501 143.847 11.845 145.615 11.6988L151.64 11.2008C152.384 11.1393 153.032 10.6687 153.32 9.9802L155.655 4.4044Z" fill="#FFCE00"/>
</svg>
