<svg width="30" height="30" viewBox="0 0 30 30" fill="none" xmlns="http://www.w3.org/2000/svg">
<path d="M21.529 9.26242C21.4684 9.1008 21.4078 9.0604 21.3269 9.0402C21.1047 8.93918 20.7411 9.0604 20.7411 9.0604C20.7411 9.0604 7.99338 13.6463 7.2661 14.1514C7.10448 14.2524 7.06407 14.3332 7.02367 14.3938C6.90245 14.7575 7.2863 14.9191 7.2863 14.9191L10.5793 15.9898C10.5793 15.9898 10.7005 16.01 10.7409 15.9898C11.4884 15.5252 18.2562 11.2423 18.64 11.1008C18.7006 11.0806 18.741 11.1008 18.741 11.1412C18.5794 11.6867 12.7005 16.9191 12.7005 16.9191C12.7005 16.9191 12.6803 16.9393 12.6601 16.9797L12.3571 20.2323C12.3571 20.2323 12.2359 21.2222 13.2258 20.2323C13.9329 19.5252 14.6198 18.9394 14.943 18.6565C16.0945 19.4242 17.3067 20.2929 17.8319 20.7374C18.0946 20.9596 18.3168 21 18.4986 21C19.0037 20.9798 19.1451 20.4343 19.1451 20.4343C19.1451 20.4343 21.4482 11.0806 21.529 9.82809C21.529 9.70687 21.5492 9.62606 21.5492 9.54525C21.5492 9.42404 21.5492 9.32303 21.529 9.26242Z" fill="#6C7793"/>
</svg>
