<svg width="15" height="12" viewBox="0 0 15 12" fill="none" xmlns="http://www.w3.org/2000/svg">
<path d="M14.529 0.262421C14.4684 0.100802 14.4078 0.0603974 14.3269 0.040195C14.1047 -0.0608168 13.7411 0.0603974 13.7411 0.0603974C13.7411 0.0603974 0.993381 4.64634 0.266095 5.1514C0.104476 5.25241 0.0640716 5.33322 0.0236668 5.39382C-0.0975474 5.75747 0.286298 5.91909 0.286298 5.91909L3.57928 6.98981C3.57928 6.98981 3.7005 7.01001 3.7409 6.98981C4.48839 6.52516 11.2562 2.24225 11.64 2.10084C11.7006 2.08063 11.741 2.10084 11.741 2.14124C11.5794 2.68671 5.70053 7.91912 5.70053 7.91912C5.70053 7.91912 5.68033 7.93932 5.66013 7.97973L5.35709 11.2323C5.35709 11.2323 5.23588 12.2222 6.2258 11.2323C6.93288 10.5252 7.61976 9.93936 7.943 9.65652C9.09453 10.4242 10.3067 11.2929 10.8319 11.7374C11.0946 11.9596 11.3168 12 11.4986 12C12.0037 11.9798 12.1451 11.4343 12.1451 11.4343C12.1451 11.4343 14.4482 2.08063 14.529 0.828088C14.529 0.706873 14.5492 0.626064 14.5492 0.545254C14.5492 0.42404 14.5492 0.323028 14.529 0.262421Z" fill="#6C7793"/>
</svg>
